# xmcd
#
# Track frame offsets: 
#        150
#        12651
#        26663
#        43574
#        68404
#        82482
#        96049
#        121434
#        146934
#        163765
#        179342
#        205604
#        221602
#
# Disc length: 3334 seconds
#
# Revision: 0
# Processed by: cddbd v1.5.2PL0 Copyright (c) Steve Scherf et al.
# Submitted via: ExactAudioCopy v1.3
#
DISCID=bd0d040d
DTITLE=Marc Amacher - Roadhouse
DYEAR=2019
DGENRE=Blues Rock
TTITLE0=Roadhouse
TTITLE1=Kid
TTITLE2=Jack Driver
TTITLE3=Ride On
TTITLE4=Smoke Stack Lightning
TTITLE5=Valley Of Tears
TTITLE6=Death Letter
TTITLE7=Grandma
TTITLE8=Open Window
TTITLE9=Down With The Blues
TTITLE10=Bluesman
TTITLE11=Good Old Rock n Roll
TTITLE12=What She Say
EXTD=
EXTT0=
EXTT1=
EXTT2=
EXTT3=
EXTT4=
EXTT5=
EXTT6=
EXTT7=
EXTT8=
EXTT9=
EXTT10=
EXTT11=
EXTT12=
PLAYORDER=
